<svg width="39" height="41" viewBox="0 0 39 41" fill="none" xmlns="http://www.w3.org/2000/svg">
<path d="M19.239 3.3999L17.0518 8.16002C15.489 11.5607 13.3943 14.6535 10.8576 17.3063L10.5702 17.5953C8.94094 19.2796 8.01004 21.5865 7.98392 24.0044V24.3104C7.94077 29.0453 10.5903 33.3379 14.6891 35.1737L15.1041 35.3607C17.7924 36.5766 20.8293 36.5766 23.5175 35.3607H23.6133C27.7427 33.4502 30.3922 29.0875 30.3344 24.2934V16.9152C28.9583 20.2618 26.4592 22.9413 23.3259 24.4294C23.3259 24.4294 23.3259 24.4294 23.2301 24.4294C23.1344 24.4294 22.0168 24.9225 21.5379 24.4294C21.1101 23.9685 21.0692 23.2415 21.4421 22.7294L21.5539 22.6444H21.6337C25.2988 19.6778 26.1533 14.1811 23.5814 10.1151C21.506 6.74899 19.239 3.3999 19.239 3.3999Z" fill="#FF5065" fill-opacity="0.9"/>
</svg>
